<mxfile host="65bd71144e" modified="2020-11-24T06:43:50.520Z" agent="5.0 (Macintosh; Intel Mac OS X 10_15_7) AppleWebKit/537.36 (KHTML, like Gecko) Code/1.51.1 Chrome/83.0.4103.122 Electron/9.3.3 Safari/537.36" version="13.6.5" etag="GQQIwRGZi_ZNSiPpQz6u">
    <diagram id="HsK9UgOuRCU1PCmNCYJU" name="第 1 页">
        <mxGraphModel dx="898" dy="680" grid="1" gridSize="10" guides="1" tooltips="1" connect="1" arrows="1" fold="1" page="1" pageScale="1" pageWidth="827" pageHeight="1169" math="0" shadow="0">
            <root>
                <mxCell id="0"/>
                <mxCell id="1" parent="0"/>
                <mxCell id="4" value="前端" style="shape=umlLifeline;perimeter=lifelinePerimeter;whiteSpace=wrap;html=1;container=1;collapsible=0;recursiveResize=0;outlineConnect=0;" vertex="1" parent="1">
                    <mxGeometry x="320" y="40" width="80" height="560" as="geometry"/>
                </mxCell>
                <mxCell id="85" value="" style="html=1;points=[];perimeter=orthogonalPerimeter;" vertex="1" parent="4">
                    <mxGeometry x="35" y="400" width="10" height="130" as="geometry"/>
                </mxCell>
                <mxCell id="66" value="" style="html=1;points=[];perimeter=orthogonalPerimeter;" vertex="1" parent="4">
                    <mxGeometry x="35" y="215" width="10" height="150" as="geometry"/>
                </mxCell>
                <mxCell id="5" value="后端" style="shape=umlLifeline;perimeter=lifelinePerimeter;whiteSpace=wrap;html=1;container=1;collapsible=0;recursiveResize=0;outlineConnect=0;" vertex="1" parent="1">
                    <mxGeometry x="720" y="40" width="80" height="560" as="geometry"/>
                </mxCell>
                <mxCell id="31" value="" style="html=1;points=[];perimeter=orthogonalPerimeter;" vertex="1" parent="5">
                    <mxGeometry x="35" y="110" width="10" height="90" as="geometry"/>
                </mxCell>
                <mxCell id="88" value="" style="html=1;points=[];perimeter=orthogonalPerimeter;" vertex="1" parent="5">
                    <mxGeometry x="33" y="400" width="10" height="90" as="geometry"/>
                </mxCell>
                <mxCell id="91" value="检查数据完整性" style="html=1;verticalAlign=bottom;endArrow=block;" edge="1" parent="5" source="89">
                    <mxGeometry relative="1" as="geometry">
                        <mxPoint x="-90" y="450" as="sourcePoint"/>
                        <mxPoint x="32.5" y="450" as="targetPoint"/>
                    </mxGeometry>
                </mxCell>
                <mxCell id="67" value="" style="html=1;points=[];perimeter=orthogonalPerimeter;" vertex="1" parent="5">
                    <mxGeometry x="35" y="230" width="10" height="90" as="geometry"/>
                </mxCell>
                <mxCell id="16" value="浏览器" style="shape=umlLifeline;perimeter=lifelinePerimeter;whiteSpace=wrap;html=1;container=1;collapsible=0;recursiveResize=0;outlineConnect=0;" vertex="1" parent="1">
                    <mxGeometry x="40" y="40" width="80" height="560" as="geometry"/>
                </mxCell>
                <mxCell id="18" value="仓库锁定/解除锁定" style="html=1;verticalAlign=bottom;startArrow=oval;endArrow=block;startSize=8;" edge="1" target="17" parent="1" source="16">
                    <mxGeometry relative="1" as="geometry">
                        <mxPoint x="210" y="140" as="sourcePoint"/>
                        <Array as="points">
                            <mxPoint x="330.5" y="140"/>
                        </Array>
                    </mxGeometry>
                </mxCell>
                <mxCell id="30" value="POST /api/repo/&amp;lt;project&amp;gt;/&amp;lt;app&amp;gt;/locked" style="html=1;verticalAlign=bottom;startArrow=oval;startFill=1;endArrow=block;startSize=8;" edge="1" parent="1" source="17" target="7">
                    <mxGeometry width="60" relative="1" as="geometry">
                        <mxPoint x="410" y="310" as="sourcePoint"/>
                        <mxPoint x="540" y="190" as="targetPoint"/>
                        <Array as="points">
                            <mxPoint x="510" y="170"/>
                        </Array>
                    </mxGeometry>
                </mxCell>
                <mxCell id="17" value="" style="html=1;points=[];perimeter=orthogonalPerimeter;" vertex="1" parent="1">
                    <mxGeometry x="355" y="120" width="10" height="120" as="geometry"/>
                </mxCell>
                <mxCell id="47" value="success: true" style="html=1;verticalAlign=bottom;endArrow=open;dashed=1;endSize=8;exitX=-0.1;exitY=0.89;exitDx=0;exitDy=0;exitPerimeter=0;" edge="1" parent="1" source="8">
                    <mxGeometry relative="1" as="geometry">
                        <mxPoint x="534" y="230" as="sourcePoint"/>
                        <mxPoint x="365" y="228" as="targetPoint"/>
                    </mxGeometry>
                </mxCell>
                <mxCell id="72" value="仓库状态查询" style="html=1;verticalAlign=bottom;startArrow=oval;endArrow=block;startSize=8;" edge="1" parent="1" target="66" source="16">
                    <mxGeometry relative="1" as="geometry">
                        <mxPoint x="230" y="290" as="sourcePoint"/>
                        <Array as="points">
                            <mxPoint x="270" y="290"/>
                        </Array>
                    </mxGeometry>
                </mxCell>
                <mxCell id="7" value="接口" style="shape=umlLifeline;perimeter=lifelinePerimeter;whiteSpace=wrap;html=1;container=1;collapsible=0;recursiveResize=0;outlineConnect=0;" vertex="1" parent="1">
                    <mxGeometry x="560" y="40" width="80" height="560" as="geometry"/>
                </mxCell>
                <mxCell id="8" value="" style="html=1;points=[];perimeter=orthogonalPerimeter;" vertex="1" parent="7">
                    <mxGeometry x="35" y="100" width="10" height="100" as="geometry"/>
                </mxCell>
                <mxCell id="68" value="" style="html=1;points=[];perimeter=orthogonalPerimeter;" vertex="1" parent="7">
                    <mxGeometry x="35.5" y="230" width="10" height="120" as="geometry"/>
                </mxCell>
                <mxCell id="89" value="" style="html=1;points=[];perimeter=orthogonalPerimeter;" vertex="1" parent="7">
                    <mxGeometry x="35.5" y="400" width="10" height="120" as="geometry"/>
                </mxCell>
                <mxCell id="32" value="检查数据完整性" style="html=1;verticalAlign=bottom;startArrow=oval;endArrow=block;startSize=8;exitX=1;exitY=0.41;exitDx=0;exitDy=0;exitPerimeter=0;" edge="1" target="31" parent="1" source="8">
                    <mxGeometry relative="1" as="geometry">
                        <mxPoint x="570" y="180" as="sourcePoint"/>
                    </mxGeometry>
                </mxCell>
                <mxCell id="46" value="data" style="html=1;verticalAlign=bottom;endArrow=open;dashed=1;endSize=8;exitX=-0.3;exitY=0.767;exitDx=0;exitDy=0;exitPerimeter=0;entryX=1.1;entryY=0.79;entryDx=0;entryDy=0;entryPerimeter=0;" edge="1" parent="1" source="31" target="8">
                    <mxGeometry relative="1" as="geometry">
                        <mxPoint x="620" y="270" as="sourcePoint"/>
                        <mxPoint x="600" y="230" as="targetPoint"/>
                    </mxGeometry>
                </mxCell>
                <mxCell id="74" value="isLocked: true锁定仓库/false不锁定仓库" style="html=1;verticalAlign=bottom;endArrow=open;dashed=1;endSize=8;exitX=-0.25;exitY=0.99;exitDx=0;exitDy=0;exitPerimeter=0;" edge="1" parent="1" source="66" target="16">
                    <mxGeometry relative="1" as="geometry">
                        <mxPoint x="280.5" y="370" as="sourcePoint"/>
                        <mxPoint x="250" y="409" as="targetPoint"/>
                    </mxGeometry>
                </mxCell>
                <mxCell id="73" value="success: true, 仓库信息" style="html=1;verticalAlign=bottom;endArrow=open;dashed=1;endSize=8;exitX=-0.25;exitY=0.85;exitDx=0;exitDy=0;exitPerimeter=0;" edge="1" parent="1" source="68" target="66">
                    <mxGeometry relative="1" as="geometry">
                        <mxPoint x="554.5" y="351" as="sourcePoint"/>
                        <mxPoint x="380" y="372" as="targetPoint"/>
                    </mxGeometry>
                </mxCell>
                <mxCell id="84" value="本地" style="shape=umlLifeline;perimeter=lifelinePerimeter;whiteSpace=wrap;html=1;container=1;collapsible=0;recursiveResize=0;outlineConnect=0;" vertex="1" parent="1">
                    <mxGeometry x="160" y="40" width="80" height="560" as="geometry"/>
                </mxCell>
                <mxCell id="86" value="推送代码" style="html=1;verticalAlign=bottom;endArrow=block;entryX=0;entryY=0;" edge="1" target="85" parent="1" source="84">
                    <mxGeometry relative="1" as="geometry">
                        <mxPoint x="285" y="440" as="sourcePoint"/>
                    </mxGeometry>
                </mxCell>
                <mxCell id="87" value="true开始推送/false推送被拒绝" style="html=1;verticalAlign=bottom;endArrow=open;dashed=1;endSize=8;exitX=0;exitY=0.95;" edge="1" source="85" parent="1" target="84">
                    <mxGeometry relative="1" as="geometry">
                        <mxPoint x="285" y="516" as="targetPoint"/>
                    </mxGeometry>
                </mxCell>
                <mxCell id="93" value="isLocked: true/false" style="html=1;verticalAlign=bottom;endArrow=open;dashed=1;endSize=8;" edge="1" parent="1" source="89">
                    <mxGeometry relative="1" as="geometry">
                        <mxPoint x="558.5" y="540" as="sourcePoint"/>
                        <mxPoint x="365" y="540" as="targetPoint"/>
                    </mxGeometry>
                </mxCell>
                <mxCell id="69" value="GET /api/gittar/&amp;lt;org&amp;gt;/&amp;lt;repo&amp;gt;/stats/&amp;lt;*&amp;gt;" style="html=1;verticalAlign=bottom;startArrow=oval;endArrow=block;startSize=8;entryX=0.05;entryY=0.25;entryDx=0;entryDy=0;entryPerimeter=0;" edge="1" parent="1" source="66" target="68">
                    <mxGeometry relative="1" as="geometry">
                        <mxPoint x="408" y="301" as="sourcePoint"/>
                    </mxGeometry>
                </mxCell>
                <mxCell id="90" value="GET /api/gittar/&amp;lt;org&amp;gt;/&amp;lt;repo&amp;gt;/stats/&amp;lt;*&amp;gt;" style="html=1;verticalAlign=bottom;startArrow=oval;endArrow=block;startSize=8;entryX=0.05;entryY=0.25;entryDx=0;entryDy=0;entryPerimeter=0;" edge="1" parent="1" target="89" source="85">
                    <mxGeometry relative="1" as="geometry">
                        <mxPoint x="405.5" y="471" as="sourcePoint"/>
                    </mxGeometry>
                </mxCell>
                <mxCell id="92" value="DATA" style="html=1;verticalAlign=bottom;endArrow=open;dashed=1;endSize=8;exitX=0;exitY=0.95;" edge="1" parent="1" source="88" target="89">
                    <mxGeometry relative="1" as="geometry">
                        <mxPoint x="620" y="526" as="targetPoint"/>
                    </mxGeometry>
                </mxCell>
                <mxCell id="71" value="DATA" style="html=1;verticalAlign=bottom;endArrow=open;dashed=1;endSize=8;exitX=0;exitY=0.95;" edge="1" parent="1" source="67" target="68">
                    <mxGeometry relative="1" as="geometry">
                        <mxPoint x="630" y="356" as="targetPoint"/>
                    </mxGeometry>
                </mxCell>
                <mxCell id="70" value="检查数据完整性" style="html=1;verticalAlign=bottom;endArrow=block;" edge="1" parent="1" source="68" target="67">
                    <mxGeometry relative="1" as="geometry">
                        <mxPoint x="630.5" y="280" as="sourcePoint"/>
                        <mxPoint x="730" y="320" as="targetPoint"/>
                        <Array as="points">
                            <mxPoint x="690" y="320"/>
                        </Array>
                    </mxGeometry>
                </mxCell>
            </root>
        </mxGraphModel>
    </diagram>
</mxfile>